<svg xmlns="http://www.w3.org/2000/svg" viewBox="0 0 200.16 200.16"><defs><style>.cls-1{fill:#d8d8d8;stroke-width:0.5px;}.cls-1,.cls-2{stroke:#231f20;stroke-miterlimit:10;}.cls-2{fill:#a5a4a4;stroke-width:0.75px;}</style></defs><g id="Layer_2" data-name="Layer 2"><g id="Layer_1-2" data-name="Layer 1"><g id="cloudy"><rect class="cls-1" x="0.25" y="0.25" width="199.66" height="199.66"/><path id="cloudy-2" data-name="cloudy" class="cls-2" d="M40.42,149.17H152.1a31.25,31.25,0,0,0,8-3.3,45.47,45.47,0,0,0,11-9.64c6.09-7.49,8.75-13.2,9.89-21.58,1-7.29,1.1-19.16-1.9-24.11S173,81.67,166.19,76a39.26,39.26,0,0,0-9.52-5.46A26.16,26.16,0,0,0,147,68.72a60.62,60.62,0,0,1-7.61,0S134,57.55,129.76,52.22a51.9,51.9,0,0,0-9.13-8.76,38.9,38.9,0,0,0-15.23-6.72c-8.63-1.53-23.1-1.65-33.12,3.8-3.86,2.1-7.15,5.23-10,7.87a37.44,37.44,0,0,0-7.61,10.66c-3.3,6.6-5.08,11.93-5.59,17.51s-1.52,12.69-1.52,12.69-10.15,1.27-16,6.35S20.63,108.06,19.1,115.16s-.19,18.73,4.32,23.86c6.47,7.36,10.39,8,12.69,9A10.57,10.57,0,0,0,40.42,149.17Z"/></g></g></g></svg>