<svg xmlns="http://www.w3.org/2000/svg" viewBox="0 0 200.16 200.16"><defs><style>.cls-1{fill:#d8d8d8;stroke-width:0.5px;}.cls-1,.cls-2,.cls-3{stroke:#231f20;stroke-miterlimit:10;}.cls-2{fill:#ece82d;}.cls-2,.cls-3{stroke-width:0.55px;}.cls-3{fill:#a5a4a4;}</style></defs><g id="Layer_2" data-name="Layer 2"><g id="Layer_1-2" data-name="Layer 1"><g id="partly_cloudy"><rect class="cls-1" x="0.25" y="0.25" width="199.66" height="199.66"/><g id="sunny"><circle class="cls-2" cx="82.55" cy="93.32" r="32.89"/><rect class="cls-2" x="78.27" y="22.35" width="8.56" height="26.87"/><path class="cls-2" d="M86.83,153.64V137.41H78.27v16.84A17.22,17.22,0,0,1,86.83,153.64Z"/><rect class="cls-2" x="20.54" y="79.88" width="8.56" height="26.87" transform="translate(118.14 68.49) rotate(90)"/><path class="cls-2" d="M146.82,95.94a20,20,0,0,1-2.24-6.9H123.92V97.6h24.41A4.9,4.9,0,0,1,146.82,95.94Z"/><rect class="cls-2" x="115.03" y="43.13" width="8.56" height="21.74" transform="translate(73.13 -68.55) rotate(45)"/><rect class="cls-2" x="39.07" y="43.13" width="8.56" height="21.74" transform="translate(112.19 61.53) rotate(135)"/><rect class="cls-2" x="116.05" y="120.11" width="8.56" height="21.74" transform="translate(298.04 138.51) rotate(135)"/><rect class="cls-2" x="39.07" y="119.09" width="8.56" height="21.74" transform="translate(104.59 7.41) rotate(45)"/></g><path class="cls-3" d="M82.78,158H164.9a23.06,23.06,0,0,0,5.87-2.43,32.93,32.93,0,0,0,8.12-7.09c4.48-5.51,6.44-9.7,7.28-15.86.73-5.37.8-14.09-1.4-17.73a39.69,39.69,0,0,0-9.52-10.73,28.94,28.94,0,0,0-7-4,19.19,19.19,0,0,0-7.1-1.31,43.85,43.85,0,0,1-5.6,0s-4-8.2-7.09-12.12a38,38,0,0,0-6.72-6.44,28.65,28.65,0,0,0-11.19-5c-6.35-1.12-17-1.21-24.36,2.8a39.08,39.08,0,0,0-7.37,5.79,27.46,27.46,0,0,0-5.6,7.84c-2.42,4.85-3.73,8.77-4.1,12.87S88,114,88,114s-7.47.93-11.76,4.66-8,9.15-9.14,14.37-.15,13.77,3.17,17.54c4.76,5.42,7.64,5.89,9.33,6.63A7.91,7.91,0,0,0,82.78,158Z"/></g></g></g></svg>