<svg id="Layer_1" data-name="Layer 1" xmlns="http://www.w3.org/2000/svg" viewBox="0 0 468.7 416.11"><defs><style>.cls-1{fill:#b3b4b3;stroke-miterlimit:10;stroke-width:0.96px;}.cls-1,.cls-2,.cls-3,.cls-4{stroke:#231f20;}.cls-2{fill:#090505;}.cls-3{fill:#0b0808;}.cls-4{fill:#6d6a6a;}</style></defs><rect class="cls-1" x="0.48" y="0.48" width="467.74" height="415.15"/><g id="question_mark"><path class="cls-2" d="M194.13,279.18c4.4-18,8.63-24.81,14.08-32.48,8.19-11.53,11.92-14.46,17.64-19.44a110.06,110.06,0,0,1,23.28-15.62,145.63,145.63,0,0,1,30.47-10.55,172.84,172.84,0,0,1,25-2.43c7.26-.13,13.63.82,16,.89,5.44.17,23.49,3.58,34.72,6.64a96.22,96.22,0,0,1,20.26,8.68A124.49,124.49,0,0,1,387.68,223a93.85,93.85,0,0,1,12.94,11.36,81.66,81.66,0,0,1,9.87,13.32c1.75,3.05,6,9.43,8,15.92,1.84,5.92,2.8,10.62,3.57,13.19.9,2.95,1.76,11.3,1.54,19.11a114.37,114.37,0,0,1-1.54,15.78A130.13,130.13,0,0,1,418.11,328a58.39,58.39,0,0,1-5.41,11.32,115.16,115.16,0,0,1-7.49,11.15c-2.71,3.45-6,6.64-7.49,8.25-3.23,3.58-16.51,14.13-19.57,16.17s-15,10.9-19.58,14.3-10.59,11.64-13.1,14.47c-2.09,2.35-6,9.81-8.17,17-1.64,5.35-.85,24.34-.85,24.34H271.94s0-11.4-.17-16.17,1.19-19.4,2.72-25.36,6.3-16.51,7.83-20.09,8.68-12.93,11.57-16.85,18.39-16.68,20.09-18.21c.79-.71,6.34-4.38,10.68-8a126.85,126.85,0,0,0,10.08-9.4c2.05-2,8.69-11.75,10.73-16.51s2.38-16.17,2.38-22.3-2.55-14.64-6-20.43a36.94,36.94,0,0,0-8.55-9.61,53.62,53.62,0,0,0-11.7-6.39,36.41,36.41,0,0,0-11-2.29,59.59,59.59,0,0,0-10.6.76c-3.06.34-13.62,4.43-18.38,7.66-2.38,1.62-3.93,2-8,6.64a62.58,62.58,0,0,0-6.6,9.36,50.24,50.24,0,0,0-5.4,12.47A87.23,87.23,0,0,0,259.51,301c-.85,5.62,0,16.34,0,16.34H188.36s1.41-13.63,2.73-22C192.23,288.16,194.13,279.18,194.13,279.18Z" transform="translate(-71.42 -172.46)"/><circle class="cls-3" cx="231.21" cy="337.89" r="37.96"/></g><g id="question_mark-2" data-name="question_mark"><path class="cls-4" d="M190.76,275.09c4.4-18,8.63-24.81,14.08-32.47,8.19-11.53,11.92-14.47,17.64-19.45a110.57,110.57,0,0,1,23.28-15.62A146.32,146.32,0,0,1,276.22,197a173,173,0,0,1,25-2.43c7.26-.12,13.63.82,16,.9,5.44.17,23.49,3.57,34.72,6.64a96.16,96.16,0,0,1,20.25,8.68A121.89,121.89,0,0,1,384.31,219a93.85,93.85,0,0,1,12.94,11.36,82.27,82.27,0,0,1,9.87,13.32c1.75,3.05,6,9.42,8,15.91,1.84,5.93,2.79,10.63,3.57,13.19.9,3,1.76,11.31,1.53,19.11a113.43,113.43,0,0,1-1.53,15.79,129.65,129.65,0,0,1-3.95,16.25,59,59,0,0,1-5.41,11.32,113.94,113.94,0,0,1-7.49,11.15c-2.71,3.45-6,6.64-7.49,8.26-3.23,3.57-16.51,14.12-19.57,16.17s-15,10.89-19.58,14.3-10.59,11.64-13.1,14.46c-2.09,2.35-6,9.81-8.17,17-1.64,5.36-.85,24.34-.85,24.34H268.56s0-11.4-.17-16.17,1.2-19.4,2.73-25.36,6.3-16.51,7.83-20.08,8.68-12.94,11.57-16.85,18.39-16.68,20.09-18.22c.78-.7,6.33-4.38,10.68-8a126.27,126.27,0,0,0,10.08-9.41c2.05-2,8.68-11.74,10.73-16.51s2.38-16.17,2.38-22.3-2.55-14.63-6-20.42A37.15,37.15,0,0,0,330,258a53.92,53.92,0,0,0-11.7-6.38,36.5,36.5,0,0,0-11-2.3,58.29,58.29,0,0,0-10.6.77c-3.06.34-13.62,4.42-18.38,7.66-2.38,1.61-3.94,2-8,6.63a63.53,63.53,0,0,0-6.59,9.37,50.62,50.62,0,0,0-5.41,12.46,89.24,89.24,0,0,0-2.08,10.68c-.85,5.62,0,16.35,0,16.35H185s1.4-13.63,2.72-22C188.86,284.08,190.76,275.09,190.76,275.09Z" transform="translate(-71.42 -172.46)"/><circle class="cls-4" cx="227.84" cy="333.81" r="37.96"/></g></svg>