<svg xmlns="http://www.w3.org/2000/svg" viewBox="0 0 200.16 200.16"><defs><style>.cls-1{fill:#d8d8d8;stroke-width:0.5px;}.cls-1,.cls-2,.cls-3{stroke:#231f20;stroke-miterlimit:10;}.cls-2{fill:#fdeb01;}.cls-2,.cls-3{stroke-width:0.64px;}.cls-3{fill:#a5a4a4;}</style></defs><g id="Layer_2" data-name="Layer 2"><g id="Layer_1-2" data-name="Layer 1"><g id="thunderstorms"><rect class="cls-1" x="0.25" y="0.25" width="199.66" height="199.66"/><polygon class="cls-2" points="131.82 114.63 109.86 114.63 123.04 83.72 91.8 83.72 78.02 136.1 97.56 136.1 91.8 177.1 131.82 114.63"/><path class="cls-3" d="M180.39,81.85c-2.79-4.61-5.84-8.48-12.36-13.94a37.83,37.83,0,0,0-9.09-5.21,25.08,25.08,0,0,0-9.2-1.69,57.51,57.51,0,0,1-7.27,0s-5.18-10.64-9.21-15.73a49.67,49.67,0,0,0-8.72-8.36A37.17,37.17,0,0,0,110,30.48C101.76,29,88,28.9,78.38,34.11c-3.69,2-6.83,5-9.57,7.51A35.75,35.75,0,0,0,61.54,51.8c-3.15,6.3-4.85,11.39-5.33,16.72s-1.46,12.11-1.46,12.11-9.69,1.22-15.26,6.06S29.07,98.57,27.62,105.35s-.19,17.88,4.11,22.78c6.18,7,9.93,7.64,12.12,8.6A10.21,10.21,0,0,0,48,137.82H71.51L85.19,78.3h48.25L119.8,107.89h24l-20.58,29.93h31.33a29.93,29.93,0,0,0,7.64-3.15,43.19,43.19,0,0,0,10.54-9.21c5.81-7.15,8.36-12.6,9.45-20.59C183.16,97.9,183.25,86.57,180.39,81.85Z"/></g></g></g></svg>