<svg xmlns="http://www.w3.org/2000/svg" viewBox="0 0 200.16 200.16"><defs><style>.cls-1{fill:#d8d8d8;stroke-width:0.5px;}.cls-1,.cls-2{stroke:#231f20;stroke-miterlimit:10;}.cls-2{fill:#a5a4a4;stroke-width:0.6px;}</style></defs><g id="Layer_2" data-name="Layer 2"><g id="Layer_1-2" data-name="Layer 1"><g id="windy"><rect class="cls-1" x="0.25" y="0.25" width="199.66" height="199.66"/><path class="cls-2" d="M113.46,46.13c.35-.34,5.42-5.16,11.51-3.55a11.6,11.6,0,0,1,6.25,4.56c.25.33,4.92,6.65,2.32,12.2-1.57,3.36-5,4.67-7.8,5.72-6,2.21-11.09,1.66-20.39.54-14.69-1.78-14-1.87-18.61-2.32-7.84-.78-14.92-1.45-23.94-.69-6.69.55-11.94,1-18.31,3.7A45,45,0,0,0,30.13,76.1l6.33,6.26a47.52,47.52,0,0,1,15.91-9C60.2,70.73,66.9,70.87,73.69,71c5.93.12,5.26.67,18.61,1.7,5.57.43,3.56.17,15.68.93,11,.69,13,.93,16.91.31,4.87-.78,8.72-1.39,12.2-4.48C143.24,64,143,55.51,143,54.09a21.75,21.75,0,0,0-3.63-11.35,19.75,19.75,0,0,0-10-8.19c-5.32-1.82-9.92-.57-12.59.15a26.65,26.65,0,0,0-9,4.41Z"/><path class="cls-2" d="M126,111.55a26.14,26.14,0,0,0,1.24,7.42,23.55,23.55,0,0,0,7.26,11.27c4.82,4,10.05,4.52,14.05,4.94,3.74.4,9.95,1.06,16.38-2.39,5.81-3.12,8.71-7.94,10.35-10.66a27.43,27.43,0,0,0,3.86-9.65A27.12,27.12,0,0,0,177,96.64c-.94-2.13-4-9-10.81-12.58-5.49-2.91-10-1.92-23.79-.54-2.22.22-14.45,1.42-22.7,1.77-15.51.66-17-1.69-37.46-2.08-13.22-.26-20-.34-27,1.77C43,88.65,34.63,96.15,29.82,101.36L35.38,108A46.77,46.77,0,0,1,57.54,93.4c2.43-.72,7.54-2,17.54-1.7,9.37.3,11.61,1.67,20.85,2.78s24,2.9,39.08-.85a65.66,65.66,0,0,1,13.28-2c5.8-.26,9.9-.39,14.06,2.09a17.55,17.55,0,0,1,7.34,9.11c2.73,8.28-2.36,15.31-3.09,16.3a18.2,18.2,0,0,1-9.73,6.72c-6.21,1.66-11.3-.73-13.37-1.7a15.7,15.7,0,0,1-6.17-4.56,14.86,14.86,0,0,1-3.09-8.11Z"/><path class="cls-2" d="M73.22,126.53A19.42,19.42,0,0,0,70.67,135c-.58,9.8,6.88,16.08,7.34,16.45a21.18,21.18,0,0,0,14.37,4.41c8.46-.35,17.39-5.53,21-14.14,4.54-10.8-1.7-21.23-2.24-22.09-9.65-15.55-35.91-17.2-53.83-11.12a57.09,57.09,0,0,0-21.47,13.36l6.64,6.64a48.16,48.16,0,0,1,7.65-5.94A53,53,0,0,1,67.2,116c6.44-1.33,13.92-2.89,22.47,0,3.2,1.08,8,2.77,11.36,7.49a17.18,17.18,0,0,1,3.32,10c0,1.93,0,6.16-3.17,9.42-3.56,3.68-8.55,3.47-10.19,3.4-1.91-.08-6.46-.28-9.43-3.86-2.67-3.24-3.08-8-1.23-12.36Z"/></g></g></g></svg>